<?xml version="1.0" encoding="utf-8"?>
<!-- Generator: Adobe Illustrator 16.0.0, SVG Export Plug-In . SVG Version: 6.00 Build 0)  -->
<!DOCTYPE svg PUBLIC "-//W3C//DTD SVG 1.1//EN" "http://www.w3.org/Graphics/SVG/1.1/DTD/svg11.dtd">
<svg version="1.1" id="Layer_2" xmlns="http://www.w3.org/2000/svg" xmlns:xlink="http://www.w3.org/1999/xlink" x="0px" y="0px"
	 width="295px" height="63px" viewBox="0 0 295 63" enable-background="new 0 0 295 63" xml:space="preserve">
<g>
	<g>
		<path fill="#231F20" d="M95.577,39.266c-0.384-0.552-0.815-1.03-1.294-1.439c-0.479-0.406-1.018-0.753-1.616-1.042
			c-0.599-0.262-1.203-0.466-1.814-0.61c-0.61-0.144-1.228-0.227-1.85-0.251c-0.025,0-0.048,0-0.072,0c-0.025,0-0.048,0-0.072,0
			c-0.025,0-0.043,0-0.054,0c-0.013,0-0.03,0-0.054,0c-0.072,0-0.139,0-0.198,0c-0.061,0-0.115,0-0.163,0c-0.023,0-0.047,0-0.072,0
			c-0.023,0-0.047,0-0.072,0c-0.048,0.024-0.084,0.036-0.108,0.036s-0.048,0-0.072,0c-1.125,0.072-2.203,0.328-3.234,0.773
			c-1.03,0.442-2.01,1.058-2.945,1.848c-0.934,0.815-1.634,1.756-2.101,2.82c-0.468,1.066-0.701,2.271-0.701,3.613
			c0,0.022,0,0.047,0,0.072c0,0.021,0.012,0.035,0.036,0.035c0,0.022,0,0.047,0,0.072c0,0.022,0.012,0.036,0.036,0.036v0.036v0.037
			l-0.036,0.036c0,0.022,0,0.047,0,0.072c0,0.021,0,0.046,0,0.071l-0.036,0.036c0,0.022,0,0.047,0,0.072
			c0,1.246,0.215,2.371,0.647,3.375c0.431,1.005,1.09,1.881,1.975,2.625c0.887,0.74,1.814,1.323,2.785,1.74
			c0.971,0.42,1.969,0.677,3,0.774c0.049,0,0.096,0,0.144,0s0.108,0.011,0.179,0.036c0.049,0,0.096,0,0.144,0
			c0.048,0,0.095,0,0.143,0c0.049,0,0.096,0,0.144,0s0.097,0.011,0.144,0.036c0.048,0,0.096,0,0.145,0c0.047,0,0.095,0,0.144,0
			c0.047,0,0.09,0,0.126,0c0.036,0,0.065,0,0.09,0c0.047,0,0.09,0,0.125,0s0.065,0,0.089,0c0.622-0.024,1.239-0.107,1.85-0.251
			c0.612-0.143,1.216-0.358,1.814-0.646c0.599-0.263,1.132-0.605,1.599-1.025c0.468-0.417,0.869-0.915,1.205-1.492v3.019h2.012
			V36.103h-2.012V39.266z M95.326,45.159c0,0.021,0,0.052,0,0.088c0,0.036,0,0.078,0,0.127c-0.025,0.022-0.036,0.053-0.036,0.088
			c0,0.037,0,0.078,0,0.127c0,0.022,0,0.053,0,0.088s0,0.066,0,0.091c0,0.047,0,0.083,0,0.107c0,0.022,0,0.058,0,0.108
			c-0.097,0.765-0.312,1.502-0.646,2.21c-0.335,0.705-0.791,1.37-1.366,1.991c-0.575,0.647-1.221,1.127-1.94,1.439
			c-0.718,0.31-1.496,0.467-2.334,0.467c-1.246,0-2.336-0.163-3.27-0.486c-0.935-0.323-1.712-0.821-2.335-1.492
			c-0.6-0.646-1.048-1.381-1.348-2.207c-0.3-0.829-0.449-1.732-0.449-2.712c0-0.025,0-0.05,0-0.072c0-0.024,0-0.049,0-0.071
			c0-0.025,0-0.044,0-0.055c0-0.011,0.013-0.031,0.036-0.053c0-0.025,0-0.044,0-0.055s0-0.031,0-0.055c0-0.022,0-0.047,0-0.072
			c0-0.021,0-0.046,0-0.072c0-0.021,0-0.041,0-0.052s0.012-0.03,0.036-0.056c0-0.021,0-0.041,0-0.052c0-0.003,0-0.012,0-0.019
			c0-0.144,0.006-0.287,0.018-0.431c0.012-0.144,0.031-0.287,0.054-0.431c0.048-0.144,0.095-0.293,0.144-0.448
			c0.048-0.157,0.107-0.318,0.18-0.486c0.215-0.549,0.515-1.083,0.899-1.599c0.382-0.514,0.849-1,1.4-1.453
			c0.551-0.481,1.162-0.834,1.833-1.061c0.669-0.227,1.377-0.365,2.119-0.414l0.433,0.071c0.934,0.072,1.777,0.251,2.531,0.539
			c0.756,0.29,1.42,0.707,1.995,1.259c0.551,0.528,1,1.138,1.348,1.831c0.347,0.697,0.581,1.462,0.701,2.299V45.159z"/>
		<path fill="#231F20" d="M205.19,37.684c-0.742-0.575-1.52-1.006-2.335-1.293c-0.814-0.288-1.664-0.442-2.551-0.467
			c-0.023,0-0.048,0-0.072,0h-0.036c-0.023,0-0.059,0-0.107,0s-0.084,0-0.107,0c-0.049,0.024-0.09,0.036-0.126,0.036
			s-0.077,0-0.126,0c-0.023,0-0.06,0-0.107,0s-0.084,0-0.108,0c-0.048,0-0.089,0-0.125,0c-0.036,0-0.077,0-0.126,0
			c-0.502,0.072-0.987,0.174-1.454,0.307c-0.469,0.129-0.93,0.304-1.384,0.519c-0.456,0.216-0.862,0.467-1.221,0.754
			c-0.359,0.287-0.671,0.588-0.935,0.898v-2.334h-2.263V53.78h2.263V43.001h-0.036c0-0.022,0-0.047,0-0.072v-0.036h-0.036
			c0-0.022,0-0.047,0-0.072c0-0.765,0.138-1.442,0.413-2.03c0.276-0.585,0.689-1.094,1.24-1.525
			c0.551-0.409,1.131-0.727,1.742-0.953c0.612-0.227,1.251-0.353,1.922-0.378c0.024,0,0.042,0,0.054,0s0.03,0,0.054,0
			s0.042,0,0.054,0c0.012,0,0.03,0,0.054,0s0.042,0,0.054,0c0.013,0,0.031,0,0.054,0s0.048,0,0.072,0c0.049,0,0.09,0,0.126,0
			s0.066,0,0.09,0c0.623,0.05,1.215,0.193,1.779,0.431c0.562,0.241,1.107,0.563,1.633,0.972c0.528,0.406,0.923,0.915,1.187,1.525
			c0.262,0.611,0.395,1.301,0.395,2.066V53.78h2.3V43.001c0-1.196-0.187-2.237-0.557-3.124
			C206.489,38.99,205.932,38.258,205.19,37.684z"/>
		<path fill="#231F20" d="M107.133,38.438v-2.514c-0.599,0-1.149,0.055-1.653,0.163c-0.503,0.107-0.97,0.257-1.4,0.447
			c-0.431,0.216-0.808,0.486-1.131,0.81c-0.324,0.323-0.618,0.688-0.882,1.094v-2.334h-2.262V53.78h2.262V43.001
			c0-0.525,0.09-1.011,0.27-1.456c0.18-0.442,0.45-0.842,0.81-1.202c0.359-0.358,0.742-0.671,1.149-0.934
			c0.407-0.265,0.838-0.466,1.294-0.613c0.119-0.047,0.244-0.089,0.377-0.125c0.131-0.036,0.27-0.066,0.413-0.091
			c0.119-0.022,0.245-0.042,0.377-0.052C106.887,38.518,107.013,38.487,107.133,38.438z"/>
		<polygon fill="#231F20" points="213.538,36.355 213.538,30.354 211.274,30.354 211.274,36.355 207.753,36.355 207.753,38.689 
			211.274,38.689 211.274,53.78 213.538,53.78 213.538,38.689 217.597,38.689 217.597,36.355 		"/>
		<path fill="#231F20" d="M77.728,44.907c-0.025-0.147-0.043-0.29-0.054-0.434c-0.012-0.144-0.03-0.287-0.054-0.431
			c-0.097-0.549-0.233-1.082-0.413-1.596c-0.179-0.517-0.402-1.036-0.666-1.563c-0.239-0.503-0.521-0.975-0.844-1.42
			c-0.323-0.442-0.676-0.845-1.059-1.205c-0.312-0.263-0.635-0.502-0.971-0.718c-0.336-0.215-0.683-0.406-1.042-0.574
			c-0.167-0.072-0.346-0.144-0.539-0.215c-0.192-0.072-0.371-0.144-0.538-0.216c-0.192-0.047-0.377-0.102-0.557-0.16
			c-0.179-0.061-0.366-0.102-0.558-0.126c-0.167-0.022-0.329-0.042-0.485-0.053c-0.156-0.014-0.306-0.03-0.449-0.055
			c-0.167-0.022-0.329-0.042-0.484-0.053c-0.157-0.014-0.306-0.02-0.449-0.02c-0.695,0-1.379,0.072-2.048,0.215
			c-0.671,0.144-1.329,0.359-1.976,0.647c-0.647,0.287-1.222,0.624-1.724,1.005c-0.502,0.384-0.946,0.804-1.33,1.26v-3.091h-2.262
			v23.712h2.262v-8.983c0.479,0.505,0.982,0.958,1.51,1.367c0.525,0.406,1.089,0.766,1.687,1.078c0.6,0.312,1.215,0.538,1.851,0.682
			c0.634,0.144,1.287,0.215,1.959,0.215c0.405,0,0.813-0.03,1.221-0.088c0.407-0.061,0.838-0.138,1.294-0.234
			c0.431-0.119,0.873-0.282,1.328-0.486c0.455-0.202,0.91-0.437,1.365-0.699c0.097-0.047,0.192-0.108,0.289-0.18
			c0.096-0.072,0.191-0.144,0.288-0.215c0.047-0.05,0.095-0.091,0.144-0.127c0.046-0.036,0.107-0.066,0.18-0.089
			c0.046-0.049,0.095-0.091,0.144-0.126c0.047-0.037,0.095-0.066,0.144-0.088c0.479-0.337,0.897-0.732,1.257-1.188
			c0.359-0.453,0.659-0.945,0.899-1.473c0.239-0.549,0.418-1.107,0.538-1.671c0.119-0.561,0.18-1.144,0.18-1.74
			c0-0.072,0-0.144,0-0.216s0-0.143,0-0.215c-0.025-0.072-0.036-0.144-0.036-0.216C77.728,45.051,77.728,44.979,77.728,44.907z
			 M75.14,44.186v0.574c0,1.03-0.168,1.967-0.502,2.804c-0.335,0.839-0.826,1.594-1.474,2.263c-0.647,0.671-1.354,1.174-2.119,1.511
			c-0.769,0.334-1.594,0.503-2.479,0.503c-0.935-0.05-1.767-0.186-2.497-0.415c-0.73-0.227-1.372-0.569-1.923-1.025
			c-0.526-0.453-0.969-0.925-1.329-1.417c-0.359-0.492-0.635-1-0.826-1.527c-0.072-0.144-0.125-0.287-0.161-0.431
			c-0.036-0.144-0.066-0.288-0.09-0.431c-0.025-0.071-0.043-0.144-0.055-0.215c-0.011-0.072-0.018-0.158-0.018-0.251
			c0-0.072,0-0.144,0-0.215s0-0.144,0-0.216c0-0.024,0-0.049,0-0.072c0-0.025,0.012-0.049,0.036-0.072c0-0.025,0-0.049,0-0.072
			c0-0.025,0-0.05,0-0.071l0.038-0.037v-0.036c0-0.024,0-0.048,0-0.072c0-0.886,0.144-1.731,0.431-2.533
			c0.287-0.804,0.729-1.563,1.328-2.282c0.575-0.718,1.264-1.263,2.066-1.635c0.803-0.37,1.719-0.558,2.749-0.558
			c0.982,0.072,1.862,0.26,2.641,0.558c0.777,0.301,1.454,0.724,2.029,1.276c0.551,0.528,1,1.088,1.348,1.688
			c0.347,0.599,0.592,1.221,0.736,1.867c0,0.049,0,0.102,0,0.163s0.011,0.113,0.036,0.16c0,0.025,0,0.049,0,0.071
			c0,0.025,0.011,0.05,0.036,0.072C75.14,44.139,75.14,44.164,75.14,44.186z"/>
		<path fill="#231F20" d="M125.22,39.306c-0.766-0.345-1.433-0.755-2.003-1.221v1.182c-0.384-0.552-0.815-1.03-1.294-1.439
			c-0.479-0.406-1.018-0.753-1.616-1.042c-0.6-0.262-1.204-0.466-1.814-0.61c-0.611-0.144-1.229-0.227-1.85-0.251
			c-0.025,0-0.049,0-0.072,0c-0.024,0-0.048,0-0.071,0c-0.025,0-0.043,0-0.054,0c-0.012,0-0.03,0-0.054,0c-0.072,0-0.139,0-0.198,0
			c-0.061,0-0.114,0-0.163,0c-0.023,0-0.047,0-0.072,0c-0.023,0-0.046,0-0.072,0c-0.049,0.024-0.084,0.036-0.108,0.036
			s-0.048,0-0.072,0c-1.125,0.072-2.203,0.328-3.233,0.773c-1.03,0.442-2.011,1.058-2.946,1.848c-0.934,0.815-1.633,1.756-2.1,2.82
			c-0.468,1.066-0.702,2.271-0.702,3.613c0,0.022,0,0.047,0,0.072c0,0.021,0.013,0.035,0.036,0.035c0,0.022,0,0.047,0,0.072
			c0,0.022,0.012,0.036,0.035,0.036v0.036v0.037l-0.035,0.036c0,0.022,0,0.047,0,0.072c0,0.021,0,0.046,0,0.071l-0.036,0.036
			c0,0.022,0,0.047,0,0.072c0,1.246,0.215,2.371,0.647,3.375c0.431,1.005,1.09,1.881,1.975,2.625c0.887,0.74,1.815,1.323,2.785,1.74
			c0.971,0.42,1.97,0.677,3,0.774c0.049,0,0.095,0,0.144,0c0.048,0,0.108,0.011,0.179,0.036c0.049,0,0.096,0,0.144,0
			c0.048,0,0.095,0,0.144,0s0.095,0,0.144,0s0.097,0.011,0.144,0.036c0.049,0,0.097,0,0.145,0c0.047,0,0.095,0,0.144,0
			c0.046,0,0.09,0,0.125,0c0.036,0,0.065,0,0.09,0c0.046,0,0.089,0,0.125,0s0.065,0,0.09,0c0.622-0.024,1.238-0.107,1.85-0.251
			c0.611-0.143,1.216-0.358,1.814-0.646c0.599-0.263,1.132-0.605,1.598-1.025c0.468-0.417,0.869-0.915,1.205-1.492v3.019h2.012
			V39.309C125.227,39.308,125.223,39.307,125.22,39.306z M122.965,45.159c0,0.021,0,0.052,0,0.088c0,0.036,0,0.078,0,0.127
			c-0.024,0.022-0.036,0.053-0.036,0.088c0,0.037,0,0.078,0,0.127c0,0.022,0,0.053,0,0.088s0,0.066,0,0.091c0,0.047,0,0.083,0,0.107
			c0,0.022,0,0.058,0,0.108c-0.096,0.765-0.312,1.502-0.646,2.21c-0.335,0.705-0.791,1.37-1.366,1.991
			c-0.575,0.647-1.221,1.127-1.94,1.439c-0.718,0.31-1.496,0.467-2.334,0.467c-1.246,0-2.336-0.163-3.27-0.486
			c-0.935-0.323-1.713-0.821-2.335-1.492c-0.6-0.646-1.048-1.381-1.348-2.207c-0.3-0.829-0.449-1.732-0.449-2.712
			c0-0.025,0-0.05,0-0.072c0-0.024,0-0.049,0-0.071c0-0.025,0-0.044,0-0.055c0-0.011,0.013-0.031,0.036-0.053
			c0-0.025,0-0.044,0-0.055s0-0.031,0-0.055c0-0.022,0-0.047,0-0.072c0-0.021,0-0.046,0-0.072c0-0.021,0-0.041,0-0.052
			s0.012-0.03,0.036-0.056c0-0.021,0-0.041,0-0.052c0-0.003,0-0.012,0-0.019c0-0.144,0.006-0.287,0.018-0.431
			c0.012-0.144,0.03-0.287,0.054-0.431c0.048-0.144,0.095-0.293,0.143-0.448c0.049-0.157,0.108-0.318,0.18-0.486
			c0.216-0.549,0.516-1.083,0.899-1.599c0.383-0.514,0.85-1,1.4-1.453c0.551-0.481,1.162-0.834,1.833-1.061
			c0.67-0.227,1.377-0.365,2.119-0.414l0.433,0.071c0.934,0.072,1.777,0.251,2.531,0.539c0.756,0.29,1.42,0.707,1.995,1.259
			c0.551,0.528,1,1.138,1.348,1.831c0.347,0.697,0.58,1.462,0.7,2.299V45.159z"/>
		<path fill="#231F20" d="M187.55,46.595c0,0.815-0.132,1.549-0.395,2.21c-0.264,0.657-0.646,1.227-1.151,1.705
			c-0.502,0.456-1.028,0.814-1.579,1.08c-0.552,0.263-1.138,0.417-1.762,0.466c-0.023,0-0.059,0.012-0.107,0.036
			c-0.023,0-0.048,0-0.072,0s-0.048,0-0.072,0s-0.054,0-0.09,0c-0.036,0-0.078,0-0.126,0c-0.623,0-1.221-0.113-1.797-0.342
			c-0.575-0.226-1.125-0.569-1.651-1.025c-0.528-0.478-0.916-1.059-1.167-1.74c-0.252-0.682-0.378-1.503-0.378-2.461V36.355h-2.514
			v10.168v0.071c0,0.025,0,0.047,0,0.072c-0.025,0.025-0.036,0.047-0.036,0.072s0,0.047,0,0.072c0,0.025,0,0.047,0,0.072
			c0,0.025,0,0.042,0,0.053c0,0.014,0,0.03,0,0.055c-0.024,0.025-0.036,0.047-0.036,0.072c0,0.025,0,0.047,0,0.072s0,0.047,0,0.072
			c0,1.149,0.179,2.155,0.539,3.017c0.359,0.865,0.91,1.594,1.652,2.193c0.719,0.6,1.479,1.047,2.282,1.345
			c0.803,0.301,1.646,0.475,2.533,0.522c0.023,0,0.041,0,0.054,0c0.011,0,0.029,0,0.054,0c0.023,0,0.047,0,0.072,0
			c0.048,0,0.09,0,0.126,0c0.036,0,0.066,0,0.09,0c0.047,0,0.089,0,0.125,0c0.036,0,0.066,0,0.09,0
			c0.048-0.025,0.09-0.036,0.125-0.036c0.036,0,0.067,0,0.09,0c0.048,0,0.09,0,0.125,0c0.036,0,0.078,0,0.125,0
			c0.024,0,0.06,0,0.108,0s0.084,0,0.107,0c0.479-0.047,0.941-0.132,1.384-0.251c0.442-0.119,0.88-0.262,1.311-0.431
			c0.431-0.19,0.826-0.437,1.187-0.738c0.359-0.298,0.693-0.652,1.005-1.058v2.011h2.3V36.355h-2.551V46.595z"/>
		<path fill="#231F20" d="M129.631,40.179c-0.667,0-1.309-0.051-1.923-0.148V53.78h2.228V43.252c0-0.861,0.119-1.604,0.359-2.226
			c0.13-0.338,0.298-0.638,0.498-0.906C130.415,40.156,130.029,40.179,129.631,40.179z"/>
		<path fill="#231F20" d="M151.528,37.863c-0.743-0.575-1.515-1.022-2.317-1.345c-0.803-0.324-1.635-0.498-2.497-0.522
			c-0.023,0-0.049,0-0.072,0s-0.048,0-0.072,0c-0.023,0-0.047,0-0.071,0s-0.049,0-0.072,0c-0.048,0-0.096,0-0.144,0
			c-0.049,0-0.084,0-0.108,0c-0.048,0.025-0.09,0.036-0.126,0.036c-0.036,0-0.079,0-0.125,0c-0.025,0-0.054,0-0.09,0
			s-0.079,0-0.126,0c-0.024,0.024-0.053,0.036-0.089,0.036c-0.036,0-0.079,0-0.125,0c-0.456,0.072-0.899,0.18-1.331,0.323
			c-0.431,0.144-0.849,0.337-1.257,0.575c-0.407,0.24-0.79,0.527-1.151,0.861c-0.358,0.337-0.682,0.732-0.969,1.188
			c-0.288-0.408-0.6-0.768-0.934-1.08c-0.335-0.309-0.682-0.585-1.043-0.826c-0.382-0.262-0.759-0.478-1.131-0.646
			c-0.034-0.016-0.069-0.026-0.103-0.041c-0.394,0.543-0.857,1.057-1.41,1.526c-0.212,0.179-0.431,0.347-0.656,0.505
			c0.317,0.054,0.627,0.131,0.93,0.236c0.549,0.193,1.077,0.469,1.58,0.829c0.503,0.381,0.881,0.813,1.133,1.293
			c0.251,0.478,0.377,1.017,0.377,1.616V53.78h2.334V42.498c0-0.671,0.121-1.256,0.361-1.76c0.239-0.502,0.585-0.911,1.041-1.221
			c0.48-0.337,0.975-0.589,1.491-0.757c0.515-0.166,1.061-0.251,1.635-0.251c0.048,0,0.09,0,0.126,0c0.036,0,0.066,0,0.09,0
			c0.023,0,0.048,0,0.071,0s0.049,0,0.072,0c0,0.025,0.013,0.036,0.036,0.036s0.048,0,0.072,0c0.575,0.024,1.125,0.144,1.653,0.361
			c0.526,0.216,1.029,0.514,1.508,0.898c0.479,0.381,0.838,0.832,1.079,1.345c0.239,0.516,0.359,1.11,0.359,1.779V53.78h2.263
			V42.247c0-0.887-0.185-1.694-0.556-2.425C152.791,39.092,152.247,38.438,151.528,37.863z"/>
		<path fill="#231F20" d="M170.87,38.33c-0.84-0.79-1.779-1.386-2.821-1.795c-1.042-0.406-2.199-0.61-3.467-0.61
			c-1.461,0-2.773,0.221-3.935,0.666c-1.161,0.442-2.174,1.107-3.036,1.991c-0.886,0.887-1.544,1.84-1.975,2.857
			c-0.433,1.019-0.647,2.102-0.647,3.25v0.072c0.048,1.533,0.312,2.876,0.791,4.025c0.478,1.149,1.162,2.122,2.047,2.911
			c0.91,0.79,1.904,1.375,2.982,1.76c1.079,0.384,2.251,0.574,3.521,0.574c1.317,0,2.515-0.209,3.594-0.629
			c1.077-0.417,2.047-1.072,2.91-1.956c0.862-0.865,1.508-1.893,1.939-3.091c0.431-1.196,0.647-2.564,0.647-4.097
			c0-1.196-0.216-2.287-0.647-3.268C172.341,40.006,171.707,39.123,170.87,38.33z M170.401,47.529
			c-0.335,0.934-0.849,1.701-1.544,2.298c-0.671,0.6-1.377,1.066-2.12,1.403c-0.741,0.334-1.508,0.538-2.299,0.61
			c-0.024,0-0.047,0-0.072,0h-0.036c-0.023,0-0.049,0-0.072,0h-0.036l-0.036,0.035c-0.023,0-0.048,0-0.072,0s-0.048,0-0.072,0
			c-0.023,0.022-0.049,0.037-0.072,0.037s-0.048,0-0.072,0c-0.072,0-0.144,0-0.215,0c-0.072,0-0.144,0-0.216,0
			c-0.071,0-0.143-0.006-0.215-0.02c-0.072-0.011-0.131-0.03-0.18-0.052c-0.671-0.122-1.323-0.354-1.958-0.702
			c-0.634-0.349-1.238-0.82-1.813-1.42c-0.574-0.622-1.007-1.345-1.294-2.174c-0.284-0.816-0.449-1.754-0.5-2.818
			c0.051-0.942,0.229-1.801,0.536-2.569c0.313-0.779,0.766-1.467,1.366-2.066c0.575-0.625,1.233-1.086,1.975-1.384
			c0.743-0.298,1.558-0.472,2.443-0.521l0.503,0.071c0.887,0.072,1.712,0.251,2.479,0.539c0.766,0.29,1.474,0.707,2.12,1.259
			c0.646,0.528,1.136,1.144,1.472,1.851c0.336,0.704,0.504,1.489,0.504,2.351C170.905,45.504,170.737,46.595,170.401,47.529z"/>
	</g>
	<path fill="#231F20" d="M7.73,59.536c-1.109,0-2.011-0.903-2.011-2.012v-9.701c0-4.176,3.397-7.573,7.573-7.573h12.185
		c5.594,0,10.146-4.551,10.146-10.146c0-5.595-4.552-10.147-10.146-10.147h-7.899c-1.109,0-2.012-0.902-2.012-2.011
		c0-1.109,0.903-2.011,2.012-2.011h7.899c7.813,0,14.168,6.356,14.168,14.17c0,7.812-6.356,14.167-14.168,14.167H13.292
		c-1.958,0-3.551,1.593-3.551,3.551v9.701C9.742,58.633,8.84,59.536,7.73,59.536z"/>
	<path fill="#5E42D3" d="M25.369,3.438H10.577c-3.091,0-5.605,2.515-5.605,5.606v0.569C5.48,8.949,6.272,8.541,7.139,8.541
		c0.704,0,1.359,0.267,1.854,0.722V9.044c0-0.874,0.71-1.584,1.583-1.584h14.792c12.487,0,22.645,10.158,22.645,22.645
		c0,12.486-10.158,22.644-22.645,22.644h-4.387c-1.109,0-2.011,0.902-2.011,2.011c0,1.109,0.902,2.011,2.011,2.011h4.387
		c14.704,0,26.667-11.962,26.667-26.667S40.073,3.438,25.369,3.438z"/>
	<g>
		<path fill="#231F20" d="M0,36.009l0.055-10.263l5.947-14.28c0.191-0.461,0.639-0.759,1.137-0.759c0.501,0,0.948,0.298,1.14,0.759
			l6.002,14.555v6.157c0,0.396-0.321,0.716-0.716,0.716s-0.716-0.321-0.716-0.716v-6.013L7.139,12.457L1.433,26.165v9.844
			c0,0.396-0.321,0.716-0.717,0.716C0.32,36.725,0,36.405,0,36.009z"/>
		<path fill="#231F20" d="M0.576,26.021c0-0.396,0.294-0.717,0.659-0.717h11.811c0.364,0,0.659,0.321,0.659,0.717
			s-0.295,0.716-0.659,0.716H1.235C0.871,26.737,0.576,26.417,0.576,26.021z"/>
		<path fill="#5E42D3" d="M9.287,38.431V28.047c0-0.328,0.265-0.593,0.592-0.593s0.593,0.266,0.593,0.593v10.383
			c0,0.328-0.266,0.595-0.593,0.595S9.287,38.759,9.287,38.431z"/>
		<path fill="#5E42D3" d="M6.548,40.867v-12.82c0-0.328,0.265-0.593,0.593-0.593c0.327,0,0.592,0.266,0.592,0.593v12.82
			c0,0.328-0.265,0.594-0.592,0.594C6.813,41.461,6.548,41.195,6.548,40.867z"/>
		<path fill="#5E42D3" d="M3.811,38.431V28.047c0-0.328,0.265-0.593,0.593-0.593s0.593,0.266,0.593,0.593v10.383
			c0,0.328-0.265,0.595-0.593,0.595S3.811,38.759,3.811,38.431z"/>
		<g>
			<g>
				<path fill="#231F20" d="M4.4,17.119l2.303-5.431c0.165-0.387,0.712-0.387,0.875,0l2.304,5.431H4.4z"/>
			</g>
		</g>
	</g>
	<path fill="#5E42D3" d="M75.286,28.292c-0.413,0-0.762-0.14-1.04-0.417c-0.277-0.275-0.418-0.625-0.418-1.04v-0.97
		c-1.701,1.611-3.733,2.427-6.049,2.427c-2.437,0-4.572-0.896-6.349-2.663c-1.778-1.767-2.681-3.92-2.681-6.399
		c0-2.46,0.903-4.599,2.682-6.353c1.778-1.755,3.924-2.645,6.38-2.645c1.696,0,3.175,0.569,4.117,1.046
		c0.373,0.188,0.643,0.515,0.758,0.918c0.115,0.401,0.057,0.836-0.159,1.194c-0.271,0.447-0.763,0.724-1.285,0.724
		c-0.267,0-0.53-0.072-0.761-0.209c-0.4-0.237-0.705-0.393-0.905-0.464c-0.547-0.195-1.146-0.293-1.778-0.293
		c-0.189,0-0.379,0.009-0.568,0.026c-1.39,0.127-2.675,0.756-3.718,1.815c-1.204,1.225-1.814,2.696-1.814,4.371
		c0,1.649,0.601,3.056,1.786,4.181c1.191,1.13,2.647,1.704,4.328,1.704c1.658,0,3.091-0.573,4.261-1.701
		c1.165-1.125,1.755-2.533,1.755-4.184V4.707c0-0.404,0.135-0.758,0.401-1.053c0.271-0.306,0.637-0.469,1.056-0.469
		c0.44,0,0.804,0.149,1.083,0.444c0.271,0.289,0.407,0.651,0.407,1.079v22.127c0,0.42-0.149,0.773-0.444,1.05
		C76.044,28.154,75.692,28.292,75.286,28.292z"/>
	<path fill="#5E42D3" d="M87.65,28.224c-2.479,0-4.62-0.866-6.363-2.576c-1.747-1.712-2.633-3.828-2.633-6.289
		c0-2.411,0.9-4.557,2.675-6.377c1.776-1.825,3.902-2.75,6.321-2.75c1.1,0,2.154,0.187,3.133,0.555
		c0.98,0.37,1.827,0.855,2.517,1.443c0.68,0.579,1.277,1.239,1.773,1.961c0.492,0.724,0.863,1.453,1.106,2.164
		c0.245,0.724,0.369,1.403,0.369,2.021c0,0.418-0.163,0.785-0.47,1.058c-0.292,0.265-0.681,0.399-1.15,0.399h-9.919
		c-0.458,0-0.831-0.141-1.107-0.419c-0.276-0.276-0.416-0.615-0.416-1.005c0-0.423,0.148-0.793,0.441-1.101
		c0.256-0.268,0.626-0.421,1.016-0.421h8.193c-0.319-0.811-0.903-1.601-1.739-2.355c-1.02-0.919-2.302-1.386-3.813-1.386
		c-1.771,0-3.222,0.64-4.312,1.902c-1.109,1.282-1.671,2.733-1.671,4.311c0,1.669,0.601,3.082,1.786,4.196
		c1.191,1.12,2.67,1.689,4.395,1.689c1.483,0,2.761-0.393,3.798-1.167c0.69-0.516,1.201-1.044,1.516-1.571
		c0.375-0.479,0.811-0.709,1.31-0.709c0.084,0,0.171,0.006,0.261,0.02l0.168,0.043c0.433,0.115,0.778,0.418,0.948,0.832
		c0.167,0.407,0.137,0.856-0.084,1.233c-0.485,0.825-1.21,1.64-2.157,2.421C92.029,27.593,90.046,28.224,87.65,28.224z"/>
	<path fill="#5E42D3" d="M105.868,28.224c-1.157,0-2.289-0.16-3.363-0.476c-1.12-0.332-2.139-0.983-3.031-1.934
		c-0.548-0.583-0.939-1.268-1.163-2.035c-0.128-0.439-0.043-0.903,0.233-1.271c0.28-0.372,0.706-0.586,1.17-0.586
		c0.63,0,1.191,0.421,1.396,1.048c0.215,0.657,0.609,1.173,1.137,1.491c0.973,0.585,2.19,0.883,3.62,0.883
		c1.51,0,2.793-0.199,3.813-0.592c0.9-0.344,1.319-0.828,1.319-1.523v-0.229c0-1.491-1.683-2.248-5.001-2.248
		c-0.874,0-1.715-0.063-2.5-0.186c-0.798-0.126-1.612-0.357-2.417-0.686c-0.856-0.348-1.549-0.888-2.059-1.604
		c-0.515-0.723-0.776-1.616-0.776-2.653v-0.228c0-1.661,0.791-2.963,2.35-3.87c1.48-0.858,3.242-1.293,5.237-1.293
		c0.723,0,1.498,0.092,2.301,0.274c0.796,0.183,1.644,0.48,2.519,0.885c0.929,0.428,1.701,1.103,2.295,2.005
		c0.335,0.51,0.581,1.078,0.728,1.69c0.101,0.419,0.007,0.855-0.259,1.196c-0.266,0.341-0.666,0.541-1.097,0.545
		c-0.049,0.003-0.106,0.004-0.161,0.004c-0.667,0-1.029-0.304-1.249-1.048c-0.187-0.771-0.653-1.355-1.429-1.797
		c-1.093-0.623-2.321-0.938-3.649-0.938c-1.44,0-2.623,0.26-3.517,0.774c-0.822,0.471-1.221,0.985-1.221,1.573v0.228
		c0,1.513,1.649,2.279,4.902,2.279c0.928,0,1.824,0.069,2.665,0.203c0.849,0.14,1.673,0.376,2.453,0.705
		c0.832,0.35,1.501,0.873,1.988,1.553c0.494,0.693,0.744,1.525,0.744,2.474v0.392c0,1.044-0.288,1.942-0.854,2.669
		c-0.56,0.716-1.319,1.238-2.258,1.55c-0.877,0.292-1.71,0.498-2.474,0.609C107.511,28.167,106.705,28.224,105.868,28.224z"/>
	<path fill="#5E42D3" d="M116.959,28.292c-0.422,0-0.791-0.171-1.066-0.497c-0.259-0.302-0.391-0.658-0.391-1.06V11.591
		c0-0.4,0.16-0.747,0.464-1.002c0.285-0.237,0.641-0.357,1.06-0.357c0.892,0,1.425,0.509,1.425,1.359v15.145
		c0,0.431-0.144,0.799-0.426,1.097C117.743,28.132,117.374,28.292,116.959,28.292z"/>
	<path fill="#5E42D3" d="M129.632,38.157c-1.351,0-2.557-0.234-3.588-0.695c-1.045-0.471-1.841-1.073-2.368-1.792
		c-0.502-0.685-0.88-1.35-1.124-1.976c-0.25-0.641-0.377-1.239-0.377-1.778c0-0.436,0.128-0.821,0.379-1.145
		c0.274-0.355,0.658-0.544,1.111-0.544c0.38,0,0.718,0.129,1.004,0.385c0.296,0.261,0.454,0.61,0.454,1.008
		c0,0.334,0.073,0.698,0.216,1.078c0.146,0.389,0.385,0.791,0.712,1.197c0.308,0.383,0.774,0.706,1.385,0.958
		c0.628,0.259,1.378,0.39,2.229,0.39c1.39,0,2.461-0.286,3.182-0.849c0.694-0.545,1.031-1.27,1.031-2.216
		c0-0.702-0.402-1.403-1.195-2.083c-0.864-0.739-1.896-1.356-3.067-1.837c-1.099-0.441-2.085-0.895-2.93-1.349
		c-0.855-0.463-1.762-1.075-2.693-1.819c-0.968-0.771-1.728-1.713-2.26-2.8c-0.532-1.085-0.802-2.313-0.802-3.651
		c0-2.312,0.912-4.315,2.71-5.955c1.788-1.626,3.903-2.452,6.286-2.452c2.434,0,4.574,0.878,6.361,2.61
		c1.792,1.734,2.701,3.85,2.701,6.289c0,1.488-0.348,2.927-1.035,4.278c-0.692,1.361-1.542,2.372-2.525,3.004
		c-0.275,0.18-0.561,0.272-0.847,0.272c-0.421,0-0.787-0.167-1.088-0.499c-0.289-0.321-0.435-0.677-0.435-1.058
		c0-0.492,0.257-0.916,0.723-1.193c0.61-0.401,1.143-1.038,1.574-1.889c0.434-0.856,0.654-1.804,0.654-2.818
		c0-1.676-0.604-3.123-1.793-4.301c-1.192-1.182-2.635-1.782-4.289-1.782c-1.595,0-3.021,0.56-4.238,1.664
		c-1.218,1.108-1.811,2.404-1.811,3.96c0,0.793,0.191,1.563,0.569,2.288c0.383,0.738,0.896,1.385,1.526,1.925
		c0.649,0.556,1.32,1.035,1.994,1.424c0.668,0.388,1.369,0.712,2.084,0.963c0.475,0.182,0.928,0.364,1.371,0.551
		c0.454,0.193,1.018,0.486,1.724,0.896c0.707,0.412,1.323,0.85,1.831,1.301c0.531,0.472,0.994,1.066,1.378,1.766
		c0.398,0.724,0.6,1.485,0.6,2.26c0,1.647-0.707,3.081-2.1,4.264C133.483,37.568,131.726,38.157,129.632,38.157z"/>
	<path fill="#5E42D3" d="M155.799,28.292c-0.396,0-0.748-0.16-1.049-0.476c-0.293-0.306-0.442-0.658-0.442-1.048v-7.769
		c0-1.739-0.434-3.174-1.291-4.263c-0.843-1.068-1.992-1.588-3.513-1.588c-1.426,0-2.649,0.544-3.632,1.616
		c-0.994,1.085-1.498,2.4-1.498,3.909v8.096c0,0.414-0.151,0.775-0.45,1.073c-0.298,0.299-0.659,0.451-1.073,0.451
		c-0.399,0-0.756-0.171-1.033-0.496c-0.26-0.303-0.391-0.66-0.391-1.061V11.526c0-0.416,0.185-0.77,0.519-0.998
		c0.285-0.196,0.623-0.297,1.003-0.297c0.892,0,1.425,0.484,1.425,1.294v0.416c1.361-1.135,3.084-1.71,5.13-1.71
		c2.321,0,4.224,0.851,5.655,2.528c1.413,1.653,2.13,3.708,2.13,6.109v7.867c0,0.431-0.144,0.8-0.427,1.097
		C156.581,28.132,156.212,28.292,155.799,28.292z"/>
	<path fill="#231F20" d="M117.091,8.821c-0.504,0-0.939-0.188-1.292-0.558c-0.349-0.361-0.525-0.797-0.525-1.294
		c0-0.489,0.192-0.907,0.57-1.24c0.361-0.318,0.781-0.479,1.248-0.479c0.498,0,0.928,0.172,1.28,0.51
		c0.357,0.341,0.538,0.769,0.538,1.274c0,0.508-0.189,0.94-0.563,1.284C117.982,8.652,117.56,8.821,117.091,8.821z"/>
	<polyline fill="#231F20" points="12.369,25.675 9.755,22.018 8.761,24.76 7.141,20.59 5.521,24.76 4.526,22.018 1.912,25.675 	"/>
</g>
</svg>
