<svg id="Layer_2" data-name="Layer 2" xmlns="http://www.w3.org/2000/svg" viewBox="0 0 415.82 119.47"><defs><style>.cls-1{fill:#fff;}</style></defs><title>Paramount-white</title><path class="cls-1" d="M111.3,74.91h4.25v5.81a15.76,15.76,0,0,1,2.5-2.37,16.29,16.29,0,0,1,3.24-1.89A18.89,18.89,0,0,1,125,75.25a18.32,18.32,0,0,1,3.85-.4c.27,0,.55,0,.84,0s.6.06.91.1.55.08.84.1.6.06.91.1a5.45,5.45,0,0,1,1,.24c.34.11.69.21,1,.3l1,.4,1,.4a17,17,0,0,1,2,1.08A17.71,17.71,0,0,1,140.27,79a16.27,16.27,0,0,1,2,2.26,16.79,16.79,0,0,1,1.59,2.67,24.75,24.75,0,0,1,1.25,2.94,19.12,19.12,0,0,1,.78,3q.07.4.1.81c0,.27.05.54.1.82v.4a1.23,1.23,0,0,0,.07.4v.81a15.78,15.78,0,0,1-.34,3.27,16.5,16.5,0,0,1-1,3.14,13.34,13.34,0,0,1-1.69,2.77,11.15,11.15,0,0,1-2.36,2.23,1.43,1.43,0,0,0-.27.17,2,2,0,0,0-.27.24,1.08,1.08,0,0,0-.34.17,2.06,2.06,0,0,0-.27.24l-.54.4a3.44,3.44,0,0,1-.54.34,27.23,27.23,0,0,1-2.56,1.31,17.45,17.45,0,0,1-2.5.91c-.86.18-1.67.33-2.43.44a16.28,16.28,0,0,1-2.29.17,16.61,16.61,0,0,1-3.68-.4,14.35,14.35,0,0,1-3.48-1.28,21.35,21.35,0,0,1-3.17-2,25,25,0,0,1-2.84-2.57v16.88H111.3ZM116,92.26v.07l-.07.07v.27a.19.19,0,0,0-.07.13v.94a3.14,3.14,0,0,0,0,.47,2.56,2.56,0,0,0,.1.4c0,.27.1.54.17.81a4,4,0,0,0,.3.81,11.48,11.48,0,0,0,1.55,2.87,16,16,0,0,0,2.5,2.66,10.47,10.47,0,0,0,3.61,1.93,19.09,19.09,0,0,0,4.69.78,11.55,11.55,0,0,0,4.66-.94,12.55,12.55,0,0,0,4-2.84,13,13,0,0,0,2.77-4.25,14.11,14.11,0,0,0,.94-5.27V90a.18.18,0,0,1-.07-.14v-.13a.63.63,0,0,1-.07-.3v-.31a12.32,12.32,0,0,0-1.38-3.51,14.43,14.43,0,0,0-2.53-3.17,11.33,11.33,0,0,0-3.81-2.4,17.38,17.38,0,0,0-5-1,12.2,12.2,0,0,0-5.17,1,10.7,10.7,0,0,0-3.88,3.07,13.72,13.72,0,0,0-3.31,9v.14Z"/><path class="cls-1" d="M148.76,92.06a.06.06,0,0,1-.07-.07v-.13a.06.06,0,0,1-.07-.07v-.13a16.72,16.72,0,0,1,1.32-6.79,15,15,0,0,1,3.95-5.3,22,22,0,0,1,5.54-3.47,18.12,18.12,0,0,1,6.08-1.45h.14a.5.5,0,0,0,.2-.07h1.42a18.34,18.34,0,0,1,3.48.47,19.74,19.74,0,0,1,3.41,1.15,13.67,13.67,0,0,1,5.47,4.66V74.91h3.78v33.22h-3.78v-5.67a11.36,11.36,0,0,1-2.26,2.8,11.17,11.17,0,0,1-3,1.93,16.72,16.72,0,0,1-3.41,1.21,18.35,18.35,0,0,1-3.48.47h-1.35a.57.57,0,0,0-.27-.07H165a1.06,1.06,0,0,0-.34-.07h-.27a18.46,18.46,0,0,1-5.64-1.45,21.34,21.34,0,0,1-5.23-3.27,13.15,13.15,0,0,1-3.71-4.93,15.9,15.9,0,0,1-1.22-6.34V92.6l.07-.07v-.27l.07-.07v-.14Zm4.73-1.32v.1s-.07.08-.07.1v.58a.19.19,0,0,0-.07.1V92a14.88,14.88,0,0,0,.84,5.1,12.12,12.12,0,0,0,2.53,4.15,10.59,10.59,0,0,0,4.39,2.8,18.78,18.78,0,0,0,6.14.91,11,11,0,0,0,4.39-.88,10.42,10.42,0,0,0,3.65-2.7,15.06,15.06,0,0,0,2.57-3.74,13.68,13.68,0,0,0,1.21-4.15v-1a.21.21,0,0,1,.07-.17V90.1a14.12,14.12,0,0,0-1.32-4.32,12.47,12.47,0,0,0-2.53-3.44A11.06,11.06,0,0,0,171.55,80a17,17,0,0,0-4.76-1l-.81-.13a15.65,15.65,0,0,0-4,.78,10.12,10.12,0,0,0-3.44,2,15.65,15.65,0,0,0-2.63,2.73,13,13,0,0,0-1.69,3,9.22,9.22,0,0,0-.34.91c-.09.29-.18.57-.27.84s-.08.54-.1.81,0,.54,0,.81v0Z"/><path class="cls-1" d="M187.57,74.91h4.25v4.39a12.62,12.62,0,0,1,1.66-2.06,8.12,8.12,0,0,1,2.13-1.52,13.46,13.46,0,0,1,2.63-.84,14.86,14.86,0,0,1,3.11-.31v4.72a2.36,2.36,0,0,1-.71.17,7,7,0,0,0-.71.1c-.27,0-.53.1-.78.17a6.66,6.66,0,0,0-.71.23A10.08,10.08,0,0,0,196,81.12a13,13,0,0,0-2.16,1.75,6.81,6.81,0,0,0-1.52,2.26,7.25,7.25,0,0,0-.51,2.74v20.26h-4.25Z"/><path class="cls-1" d="M292.49,84.93a17,17,0,0,1,3.71-5.37,15.65,15.65,0,0,1,5.71-3.74,20.56,20.56,0,0,1,7.4-1.25,17.82,17.82,0,0,1,6.52,1.15,16.44,16.44,0,0,1,5.3,3.37,15.34,15.34,0,0,1,3.58,5,15.12,15.12,0,0,1,1.21,6.14,22.65,22.65,0,0,1-1.21,7.7,15.56,15.56,0,0,1-3.64,5.81,15.37,15.37,0,0,1-5.47,3.68,18.47,18.47,0,0,1-6.75,1.18,19.59,19.59,0,0,1-6.62-1.08,17.43,17.43,0,0,1-5.6-3.31,14.88,14.88,0,0,1-3.85-5.47,21.32,21.32,0,0,1-1.49-7.56V91A15.48,15.48,0,0,1,292.49,84.93Zm4.45,11.48a11.49,11.49,0,0,0,2.43,4.09,14.24,14.24,0,0,0,3.41,2.67,12.11,12.11,0,0,0,3.68,1.32,1.28,1.28,0,0,0,.34.1,2.14,2.14,0,0,0,.4,0h.94a.21.21,0,0,0,.13-.07h.27l.07-.07h.4a13.41,13.41,0,0,0,4.32-1.15,15.75,15.75,0,0,0,4-2.64,10,10,0,0,0,2.9-4.32,18.16,18.16,0,0,0,.95-6.15,10.15,10.15,0,0,0-.95-4.42,10,10,0,0,0-2.77-3.48,13.38,13.38,0,0,0-4-2.37,17.16,17.16,0,0,0-4.66-1l-.94-.13a14.42,14.42,0,0,0-4.59,1,10.17,10.17,0,0,0-3.71,2.6A11.47,11.47,0,0,0,297,86.29a15.16,15.16,0,0,0-1,4.89V91A18.9,18.9,0,0,0,296.95,96.41Z"/><path class="cls-1" d="M328.3,75.38H333V94.49a13.35,13.35,0,0,0,.71,4.63,8.13,8.13,0,0,0,2.19,3.27,10.81,10.81,0,0,0,3.1,1.93,9,9,0,0,0,3.38.64h.67a.5.5,0,0,1,.2-.07,9.36,9.36,0,0,0,3.31-.88,12.49,12.49,0,0,0,3-2,8.94,8.94,0,0,0,2.16-3.2,11.14,11.14,0,0,0,.74-4.15V75.38h4.79v32.75h-4.32v-3.78a12.37,12.37,0,0,1-1.89,2,9.38,9.38,0,0,1-2.23,1.39,23.51,23.51,0,0,1-2.46.81,16.1,16.1,0,0,1-2.6.47h-1a.53.53,0,0,0-.24.07h-1.15a15.86,15.86,0,0,1-4.76-1,14.68,14.68,0,0,1-4.29-2.53,10.32,10.32,0,0,1-3.1-4.12,14.66,14.66,0,0,1-1-5.67V95.5a.19.19,0,0,1,.07-.13v-.47a.19.19,0,0,1,.07-.13V75.38Z"/><path class="cls-1" d="M360.84,74.91h4.25v4.39a12.86,12.86,0,0,1,1.76-1.69,11.56,11.56,0,0,1,2.29-1.42,16.13,16.13,0,0,1,2.6-1,20.7,20.7,0,0,1,2.73-.58h1.11a.52.52,0,0,0,.24-.07h.61a15.3,15.3,0,0,1,9.18,3.31A10,10,0,0,1,388.76,82a15.17,15.17,0,0,1,1,5.87v20.26h-4.32V87.74a9.76,9.76,0,0,0-.74-3.88A7.13,7.13,0,0,0,382.51,81a13.93,13.93,0,0,0-3.07-1.83,10.74,10.74,0,0,0-3.34-.81H375a11.56,11.56,0,0,0-3.61.71,13.17,13.17,0,0,0-3.27,1.79,7.89,7.89,0,0,0-2.33,2.87,8.92,8.92,0,0,0-.78,3.82v.13H365v.2h.07v20.26h-4.25Z"/><path class="cls-1" d="M390.44,79.77V75.38h6.62V64.1h4.25V75.38h7.63v4.39h-7.63v28.36h-4.25V79.77Z"/><path class="cls-1" d="M243.62,82.57a23.06,23.06,0,0,1-3.61-.28v25.84h4.19V88.34a11.61,11.61,0,0,1,.67-4.18,7,7,0,0,1,.94-1.7C245.09,82.52,244.37,82.57,243.62,82.57Z"/><path class="cls-1" d="M287.84,81.9a11.28,11.28,0,0,0-3.07-3.68,18.28,18.28,0,0,0-4.36-2.53,13.51,13.51,0,0,0-4.69-1h-1a.52.52,0,0,1-.24.07h-.64a.23.23,0,0,1-.17.07h-.24a15.53,15.53,0,0,0-2.5.61,12.4,12.4,0,0,0-4.52,2.7,11.3,11.3,0,0,0-1.82,2.23,13,13,0,0,0-1.75-2,16,16,0,0,0-2-1.55,14,14,0,0,0-2.13-1.21l-.19-.08a16.22,16.22,0,0,1-2.65,2.87c-.4.34-.81.65-1.23.95a11.12,11.12,0,0,1,1.75.44,11.89,11.89,0,0,1,3,1.56,7.35,7.35,0,0,1,2.13,2.43,6.42,6.42,0,0,1,.71,3v21.34h4.39V86.93a7.59,7.59,0,0,1,.68-3.31,5.66,5.66,0,0,1,2-2.29A10.56,10.56,0,0,1,272,79.9a10,10,0,0,1,3.07-.47h.67a.06.06,0,0,0,.07.07H276a9.09,9.09,0,0,1,3.11.68,11.49,11.49,0,0,1,2.83,1.69,7,7,0,0,1,2,2.53,7.89,7.89,0,0,1,.67,3.34v20.39h4.25V86.45A9.91,9.91,0,0,0,287.84,81.9Z"/><path class="cls-1" d="M235.33,80.93a16.8,16.8,0,0,1-3.76-2.29v2.22a13.67,13.67,0,0,0-5.47-4.66A19.73,19.73,0,0,0,222.69,75a18.35,18.35,0,0,0-3.48-.47h-1.42a.5.5,0,0,1-.2.07h-.14a18.12,18.12,0,0,0-6.08,1.45,22,22,0,0,0-5.54,3.47,15,15,0,0,0-3.95,5.3,16.72,16.72,0,0,0-1.32,6.79v.13a.06.06,0,0,0,.07.07V92a.06.06,0,0,0,.07.07v.14l-.07.07v.27l-.07.07v.14a15.9,15.9,0,0,0,1.22,6.34A13.16,13.16,0,0,0,205.5,104a21.34,21.34,0,0,0,5.23,3.27,18.46,18.46,0,0,0,5.64,1.45h.27a1.06,1.06,0,0,1,.34.07h.81a.57.57,0,0,1,.27.07h1.35a18.35,18.35,0,0,0,3.48-.47,16.71,16.71,0,0,0,3.41-1.21,11.17,11.17,0,0,0,3-1.93,11.36,11.36,0,0,0,2.26-2.8v5.67h3.78V80.93Zm-4.24,11v.4a.21.21,0,0,0-.07.17v1a13.68,13.68,0,0,1-1.21,4.15,15.06,15.06,0,0,1-2.57,3.74,10.42,10.42,0,0,1-3.65,2.7,11,11,0,0,1-4.39.88,18.78,18.78,0,0,1-6.14-.91,10.59,10.59,0,0,1-4.39-2.8,12.11,12.11,0,0,1-2.53-4.15,14.88,14.88,0,0,1-.84-5.1v-.37a.18.18,0,0,1,.07-.1v-.58s0-.06.07-.1v-.13c0-.27,0-.54,0-.81s.06-.54.1-.81.18-.55.27-.84a9.23,9.23,0,0,1,.34-.91,13,13,0,0,1,1.69-3,15.65,15.65,0,0,1,2.63-2.73,10.12,10.12,0,0,1,3.44-2,15.65,15.65,0,0,1,4-.78l.81.13a17,17,0,0,1,4.76,1,11.06,11.06,0,0,1,3.75,2.37,12.47,12.47,0,0,1,2.53,3.44,14.12,14.12,0,0,1,1.32,4.32Z"/><path class="cls-1" d="M14.53,118.94a3.78,3.78,0,0,1-3.78-3.78V96.93A14.25,14.25,0,0,1,25,82.7h22.9a19.07,19.07,0,0,0,0-38.14H33A3.78,3.78,0,1,1,33,37H47.88a26.63,26.63,0,1,1,0,53.25H25a6.68,6.68,0,0,0-6.67,6.67v18.23A3.78,3.78,0,0,1,14.53,118.94Z"/><path class="cls-1" d="M47.68,13.52H19.88A10.55,10.55,0,0,0,9.34,24.06v1.07a5.14,5.14,0,0,1,7.56-.66v-.41a3,3,0,0,1,3-3h27.8a42.56,42.56,0,1,1,0,85.11H39.43a3.78,3.78,0,1,0,0,7.56h8.24a50.12,50.12,0,0,0,0-100.23Z"/><path class="cls-1" d="M0,74.73.1,55.44,11.28,28.6a2.32,2.32,0,0,1,4.28,0L26.84,56V67.53a1.35,1.35,0,1,1-2.69,0V56.23L13.42,30.47,2.69,56.23v18.5a1.35,1.35,0,0,1-2.69,0Z"/><path class="cls-1" d="M1.08,56a1.29,1.29,0,0,1,1.24-1.35h22.2a1.35,1.35,0,0,1,0,2.69H2.32A1.29,1.29,0,0,1,1.08,56Z"/><path class="cls-1" d="M17.45,79.28V59.77a1.11,1.11,0,1,1,2.23,0V79.28a1.11,1.11,0,1,1-2.23,0Z"/><path class="cls-1" d="M12.31,83.86V59.77a1.11,1.11,0,1,1,2.23,0V83.86a1.11,1.11,0,1,1-2.23,0Z"/><path class="cls-1" d="M7.16,79.28V59.77a1.11,1.11,0,1,1,2.23,0V79.28a1.11,1.11,0,1,1-2.23,0Z"/><path class="cls-1" d="M8.27,39.23,12.6,29a.89.89,0,0,1,1.65,0l4.33,10.21Z"/><path class="cls-1" d="M141.49,60.23a2.68,2.68,0,0,1-2.74-2.74V55.66a16,16,0,0,1-11.37,4.56,17.14,17.14,0,0,1-17-17,16.24,16.24,0,0,1,5-11.94,16.55,16.55,0,0,1,12-5,17.47,17.47,0,0,1,7.74,2A2.77,2.77,0,0,1,136.6,30a2.82,2.82,0,0,1-4.14,3.21,11,11,0,0,0-1.7-.87,9.94,9.94,0,0,0-3.34-.55c-.36,0-.71,0-1.07,0a11.17,11.17,0,0,0-7,3.41A11.38,11.38,0,0,0,116,43.44a10.45,10.45,0,0,0,3.36,7.86,11.44,11.44,0,0,0,8.13,3.2,11.16,11.16,0,0,0,8-3.2,10.55,10.55,0,0,0,3.3-7.86V15.9a2.87,2.87,0,0,1,.75-2,2.58,2.58,0,0,1,2-.88,2.69,2.69,0,0,1,2,.83,2.86,2.86,0,0,1,.77,2V57.49a2.6,2.6,0,0,1-.83,2A2.78,2.78,0,0,1,141.49,60.23Z"/><path class="cls-1" d="M164.72,60.1a16.53,16.53,0,0,1-12-4.84,16,16,0,0,1-4.95-11.82,16.72,16.72,0,0,1,5-12,16.11,16.11,0,0,1,11.88-5.17,16.67,16.67,0,0,1,5.89,1A15.94,15.94,0,0,1,175.34,30a18.84,18.84,0,0,1,3.33,3.69,17.1,17.1,0,0,1,2.08,4.07,12,12,0,0,1,.69,3.8,2.59,2.59,0,0,1-.88,2,3.12,3.12,0,0,1-2.16.75H159.76a2.82,2.82,0,0,1-2.08-.79,2.59,2.59,0,0,1-.78-1.89,2.91,2.91,0,0,1,.83-2.07,2.64,2.64,0,0,1,1.91-.79H175a12,12,0,0,0-3.27-4.43,10.35,10.35,0,0,0-7.17-2.6,10.23,10.23,0,0,0-8.1,3.57,12.13,12.13,0,0,0-3.14,8.1,10.42,10.42,0,0,0,3.35,7.89,12.5,12.5,0,0,0,15.4,1,10.75,10.75,0,0,0,2.85-3A3.06,3.06,0,0,1,177.42,48a3.21,3.21,0,0,1,.49,0l.32.08A2.65,2.65,0,0,1,180,49.7a2.6,2.6,0,0,1-.16,2.32,17.66,17.66,0,0,1-4.05,4.55C173,58.91,169.23,60.1,164.72,60.1Z"/><path class="cls-1" d="M199,60.1a22.37,22.37,0,0,1-6.32-.9,12.79,12.79,0,0,1-5.7-3.63,9.37,9.37,0,0,1-2.18-3.83,2.69,2.69,0,0,1,.44-2.39,2.73,2.73,0,0,1,2.2-1.1,2.79,2.79,0,0,1,2.62,2,5,5,0,0,0,2.14,2.8,13,13,0,0,0,6.8,1.66,20.17,20.17,0,0,0,7.16-1.11c1.69-.65,2.48-1.56,2.48-2.86v-.43c0-2.8-3.16-4.22-9.4-4.22a30.32,30.32,0,0,1-4.7-.35A20.46,20.46,0,0,1,190,44.42a8.64,8.64,0,0,1-3.87-3,8.41,8.41,0,0,1-1.46-5V36a8.05,8.05,0,0,1,4.42-7.27,19.36,19.36,0,0,1,9.84-2.43,19.7,19.7,0,0,1,4.32.52A24.39,24.39,0,0,1,208,28.47a10.26,10.26,0,0,1,4.31,3.77,10,10,0,0,1,1.37,3.18,2.66,2.66,0,0,1-2.55,3.27h-.3c-1.25,0-1.93-.57-2.35-2a5.18,5.18,0,0,0-2.68-3.38,13.67,13.67,0,0,0-6.86-1.76A13.25,13.25,0,0,0,192.29,33c-1.55.89-2.3,1.85-2.3,3v.43c0,2.84,3.1,4.28,9.21,4.28a31.89,31.89,0,0,1,5,.38,20.45,20.45,0,0,1,4.61,1.32,8.61,8.61,0,0,1,3.74,2.92A7.83,7.83,0,0,1,214,50v.74a8,8,0,0,1-1.6,5,8.76,8.76,0,0,1-4.24,2.91,27.45,27.45,0,0,1-4.65,1.14A30.85,30.85,0,0,1,199,60.1Z"/><path class="cls-1" d="M219.81,60.23a2.56,2.56,0,0,1-2-.93,3,3,0,0,1-.74-2V28.84a2.39,2.39,0,0,1,.87-1.88,3,3,0,0,1,2-.67,2.41,2.41,0,0,1,2.68,2.55V57.3a2.89,2.89,0,0,1-.8,2.06A2.68,2.68,0,0,1,219.81,60.23Z"/><path class="cls-1" d="M243.62,78.77a16.42,16.42,0,0,1-6.74-1.31,10.94,10.94,0,0,1-4.45-3.37,16.63,16.63,0,0,1-2.11-3.71,9.31,9.31,0,0,1-.71-3.34,3.42,3.42,0,0,1,.71-2.15,2.55,2.55,0,0,1,2.09-1,2.76,2.76,0,0,1,1.89.72,2.46,2.46,0,0,1,.85,1.89,5.8,5.8,0,0,0,.41,2,8.28,8.28,0,0,0,1.34,2.25,6.4,6.4,0,0,0,2.6,1.8,11,11,0,0,0,4.19.73,9.61,9.61,0,0,0,6-1.6,5,5,0,0,0,1.94-4.17,5.35,5.35,0,0,0-2.25-3.91,21.25,21.25,0,0,0-5.76-3.45,54.38,54.38,0,0,1-5.51-2.53A34.67,34.67,0,0,1,233,54.21a15.28,15.28,0,0,1-4.25-5.26,15.45,15.45,0,0,1-1.51-6.86,14.67,14.67,0,0,1,5.09-11.19,17.08,17.08,0,0,1,11.81-4.61,16.68,16.68,0,0,1,12,4.9A15.92,15.92,0,0,1,261.21,43a17.59,17.59,0,0,1-1.94,8,14.12,14.12,0,0,1-4.75,5.65,2.89,2.89,0,0,1-1.59.51,2.68,2.68,0,0,1-2-.94,2.93,2.93,0,0,1-.82-2A2.57,2.57,0,0,1,251.42,52a9,9,0,0,0,3-3.55,11.61,11.61,0,0,0,1.23-5.3,11.47,11.47,0,0,0-11.43-11.43,11.55,11.55,0,0,0-8,3.13,9.63,9.63,0,0,0-3.4,7.44,9.22,9.22,0,0,0,1.07,4.3,12.06,12.06,0,0,0,2.87,3.62,25.27,25.27,0,0,0,3.75,2.68,23.09,23.09,0,0,0,3.92,1.81c.89.34,1.75.68,2.58,1a30.9,30.9,0,0,1,3.24,1.68,21.4,21.4,0,0,1,3.44,2.44,12.4,12.4,0,0,1,2.59,3.32,8.75,8.75,0,0,1,1.13,4.25,10.23,10.23,0,0,1-3.95,8A14.73,14.73,0,0,1,243.62,78.77Z"/><path class="cls-1" d="M292.8,60.23a2.66,2.66,0,0,1-2-.9,2.78,2.78,0,0,1-.83-2V42.76a12.64,12.64,0,0,0-2.43-8,7.87,7.87,0,0,0-6.6-3,9,9,0,0,0-6.83,3,10.54,10.54,0,0,0-2.82,7.35V57.36a2.89,2.89,0,0,1-2.86,2.87,2.5,2.5,0,0,1-1.94-.93,3,3,0,0,1-.74-2V28.72a2.2,2.2,0,0,1,1-1.87,3.26,3.26,0,0,1,1.89-.56c1.68,0,2.68.91,2.68,2.43v.78A14.6,14.6,0,0,1,281,26.29,13.35,13.35,0,0,1,291.59,31a17.14,17.14,0,0,1,4,11.48V57.3a2.88,2.88,0,0,1-.8,2.06A2.67,2.67,0,0,1,292.8,60.23Z"/><path class="cls-1" d="M220.05,23.64a3.25,3.25,0,0,1-2.43-1,3.4,3.4,0,0,1-1-2.43,3,3,0,0,1,1.07-2.33,3.46,3.46,0,0,1,2.34-.9,3.36,3.36,0,0,1,2.41,1,3.19,3.19,0,0,1,1,2.39,3.16,3.16,0,0,1-1.06,2.41A3.4,3.4,0,0,1,220.05,23.64Z"/><polyline class="cls-1" points="23.25 55.31 18.33 48.44 16.46 53.59 13.42 45.75 10.37 53.59 8.51 48.44 3.59 55.31"/></svg>